#define espresso_cup_10x10_filled_width 10
#define espresso_cup_10x10_filled_height 10
static unsigned char espresso_cup_10x10_filled_bits[] = {
   0x00, 0x00, 0xfc, 0x00, 0xfc, 0x03, 0xfc, 0x03, 0xfc, 0x03, 0x78, 0x00,
   0x7b, 0x03, 0xfe, 0x01, 0x00, 0x00, 0x00, 0x00 };
