#define espresso_cup_40x40_width 40
#define espresso_cup_40x40_height 40
static unsigned char espresso_cup_40x40_bits[] = {
   0x00, 0x00, 0x00, 0x00, 0x00, 0x00, 0x00, 0x00, 0x00, 0x00, 0x00, 0x00,
   0x00, 0x00, 0x00, 0x00, 0x00, 0x00, 0x00, 0x00, 0x00, 0x00, 0x00, 0x00,
   0x00, 0x00, 0x00, 0x00, 0x00, 0x00, 0x00, 0x00, 0x00, 0x00, 0x00, 0x00,
   0x00, 0x00, 0x00, 0x00, 0x00, 0x00, 0x00, 0x00, 0x00, 0x00, 0x00, 0x00,
   0x00, 0x00, 0x00, 0x00, 0x00, 0x00, 0x00, 0x00, 0xfc, 0xff, 0x1f, 0x00,
   0x00, 0x04, 0x00, 0x10, 0x00, 0x00, 0x04, 0x00, 0x10, 0x00, 0x00, 0x04,
   0x00, 0xf0, 0x01, 0x00, 0x0c, 0x00, 0x38, 0x03, 0x00, 0x08, 0x00, 0x18,
   0x06, 0x00, 0x08, 0x00, 0x18, 0x04, 0x00, 0x08, 0x00, 0x18, 0x06, 0x00,
   0x18, 0x00, 0x38, 0x03, 0x00, 0x10, 0x00, 0xec, 0x01, 0x00, 0x10, 0x00,
   0x04, 0x00, 0x00, 0x30, 0x00, 0x06, 0x00, 0x00, 0x60, 0x00, 0x02, 0x00,
   0x00, 0xc0, 0x00, 0x03, 0x00, 0xfe, 0xff, 0xff, 0xff, 0x7f, 0x0e, 0x00,
   0x00, 0x00, 0x70, 0x38, 0x00, 0x00, 0x00, 0x1c, 0xe0, 0x00, 0x00, 0x00,
   0x07, 0x80, 0xff, 0xff, 0xff, 0x01, 0x00, 0x00, 0x00, 0x00, 0x00, 0x00,
   0x00, 0x00, 0x00, 0x00, 0x00, 0x00, 0x00, 0x00, 0x00, 0x00, 0x00, 0x00,
   0x00, 0x00, 0x00, 0x00, 0x00, 0x00, 0x00, 0x00, 0x00, 0x00, 0x00, 0x00,
   0x00, 0x00, 0x00, 0x00, 0x00, 0x00, 0x00, 0x00, 0x00, 0x00, 0x00, 0x00,
   0x00, 0x00, 0x00, 0x00, 0x00, 0x00, 0x00, 0x00 };
