#define home_10_width 10
#define home_10_height 10
static unsigned char home_10_bits[] = {
   0x30, 0x00, 0x78, 0x00, 0x86, 0x01, 0x03, 0x03, 0x03, 0x03, 0x03, 0x03,
   0x7b, 0x03, 0x7b, 0x03, 0x7b, 0x03, 0xff, 0x03 };
