#define home_10x10_width 10
#define home_10x10_height 10
static unsigned char home_10x10_bits[] = {
   0x30, 0x00, 0x48, 0x00, 0x84, 0x00, 0x02, 0x01, 0x01, 0x02, 0x01, 0x02,
   0x01, 0x02, 0x01, 0x02, 0x01, 0x02, 0xff, 0x03 };
