#define hourclass_10x10_filled_width 10
#define hourclass_10x10_filled_height 10
static unsigned char hourclass_10x10_filled_bits[] = {
   0xfe, 0x01, 0xfe, 0x01, 0xfc, 0x00, 0x78, 0x00, 0x30, 0x00, 0x30, 0x00,
   0x78, 0x00, 0xfc, 0x00, 0xfe, 0x01, 0xfe, 0x01 };
