#define hourclass_10x10_width 10
#define hourclass_10x10_height 10
static unsigned char hourclass_10x10_bits[] = {
   0xfe, 0x01, 0x02, 0x01, 0xb4, 0x00, 0x78, 0x00, 0x30, 0x00, 0x30, 0x00,
   0x48, 0x00, 0x84, 0x00, 0x02, 0x01, 0xfe, 0x01 };
