#define settings_10x10_width 10
#define settings_10x10_height 10
static unsigned char settings_10x10_bits[] = {
   0x00, 0x00, 0xfe, 0x01, 0x00, 0x00, 0x00, 0x00, 0xfe, 0x01, 0x00, 0x00,
   0x00, 0x00, 0xfe, 0x01, 0x00, 0x00, 0x00, 0x00 };
