#define trash_10x10_width 10
#define trash_10x10_height 10
static unsigned char trash_10x10_bits[] = {
   0x30, 0x00, 0xff, 0x03, 0x02, 0x01, 0x4a, 0x01, 0x4a, 0x01, 0x4a, 0x01,
   0x4a, 0x01, 0x4a, 0x01, 0x02, 0x01, 0xfe, 0x01 };
