#define trash_20x20_width 20
#define trash_20x20_height 20
static unsigned char trash_20x20_bits[] = {
   0x00, 0x0f, 0x00, 0x00, 0x0f, 0x00, 0xfe, 0xff, 0x07, 0x08, 0x00, 0x01,
   0x88, 0x10, 0x01, 0x88, 0x10, 0x01, 0x88, 0x10, 0x01, 0x88, 0x10, 0x01,
   0x88, 0x10, 0x01, 0x88, 0x10, 0x01, 0x88, 0x10, 0x01, 0x88, 0x10, 0x01,
   0x88, 0x10, 0x01, 0x88, 0x10, 0x01, 0x88, 0x10, 0x01, 0x88, 0x10, 0x01,
   0x88, 0x10, 0x01, 0x88, 0x10, 0x01, 0x08, 0x00, 0x01, 0xf8, 0xff, 0x01 };
