#define circle_10x10_width 10
#define circle_10x10_height 10
static unsigned char circle_10x10_bits[] = {
   0x78, 0x00, 0xcc, 0x00, 0x86, 0x01, 0x03, 0x03, 0x01, 0x02, 0x01, 0x02,
   0x03, 0x03, 0x86, 0x01, 0xcc, 0x00, 0x78, 0x00 };
