#define espresso_cup_10x10_width 10
#define espresso_cup_10x10_height 10
static unsigned char espresso_cup_10x10_bits[] = {
   0x00, 0x00, 0xfc, 0x00, 0x84, 0x03, 0x84, 0x02, 0xc8, 0x03, 0x78, 0x00,
   0xff, 0x03, 0x02, 0x01, 0xfc, 0x00, 0x00, 0x00 };
