#define espresso_cup_30x30_width 30
#define espresso_cup_30x30_height 30
static unsigned char espresso_cup_30x30_bits[] = {
   0x00, 0x00, 0x00, 0x00, 0x00, 0x00, 0x00, 0x00, 0x00, 0x00, 0x00, 0x00,
   0x00, 0x00, 0x00, 0x00, 0x00, 0x00, 0x00, 0x00, 0x00, 0x00, 0x00, 0x00,
   0x00, 0x00, 0x00, 0x00, 0x00, 0x00, 0x00, 0x00, 0x80, 0xff, 0x7f, 0x00,
   0x80, 0x00, 0x40, 0x00, 0x80, 0x00, 0xc0, 0x01, 0x80, 0x00, 0x60, 0x03,
   0x80, 0x01, 0x20, 0x02, 0x00, 0x01, 0x20, 0x02, 0x00, 0x03, 0x70, 0x03,
   0x00, 0x02, 0xd0, 0x01, 0x00, 0x06, 0x18, 0x00, 0x00, 0x04, 0x08, 0x00,
   0xfe, 0xff, 0xff, 0x1f, 0x06, 0x00, 0x00, 0x18, 0x1c, 0x00, 0x00, 0x0e,
   0x70, 0x00, 0x80, 0x03, 0xc0, 0xff, 0x7f, 0x00, 0x00, 0x00, 0x00, 0x00,
   0x00, 0x00, 0x00, 0x00, 0x00, 0x00, 0x00, 0x00, 0x00, 0x00, 0x00, 0x00,
   0x00, 0x00, 0x00, 0x00, 0x00, 0x00, 0x00, 0x00, 0x00, 0x00, 0x00, 0x00 };
