#define espresso_cup2_10x10_width 10
#define espresso_cup2_10x10_height 10
static unsigned char espresso_cup2_10x10_bits[] = {
   0x00, 0x00, 0xfc, 0x00, 0x84, 0x03, 0x84, 0x02, 0xcc, 0x03, 0x48, 0x00,
   0x7b, 0x03, 0xfe, 0x01, 0x00, 0x00, 0x00, 0x00 };
