#define home2_10x10_width 10
#define home2_10x10_height 10
static unsigned char home2_10x10_bits[] = {
   0x30, 0x00, 0x48, 0x00, 0x84, 0x00, 0x02, 0x01, 0x01, 0x02, 0x02, 0x01,
   0x02, 0x01, 0x02, 0x01, 0x02, 0x01, 0xfe, 0x01 };
