#define home_20x20_width 20
#define home_20x20_height 20
static unsigned char home_20x20_bits[] = {
   0x00, 0x06, 0x00, 0x00, 0x0f, 0x00, 0x80, 0x19, 0x00, 0xc0, 0x30, 0x00,
   0x60, 0x60, 0x00, 0x30, 0xc0, 0x00, 0x18, 0x80, 0x01, 0x0c, 0x00, 0x03,
   0x06, 0x00, 0x06, 0x07, 0x00, 0x0e, 0x05, 0x00, 0x0a, 0x04, 0x00, 0x02,
   0x04, 0x00, 0x02, 0x04, 0x00, 0x02, 0x04, 0x00, 0x02, 0x04, 0x00, 0x02,
   0x04, 0x00, 0x02, 0x04, 0x00, 0x02, 0x04, 0x00, 0x02, 0xfc, 0xff, 0x03 };
