#define home2_10x10_filled_width 10
#define home2_10x10_filled_height 10
static unsigned char home2_10x10_filled_bits[] = {
   0x30, 0x00, 0x78, 0x00, 0xfc, 0x00, 0xfe, 0x01, 0xff, 0x03, 0xfe, 0x01,
   0xfe, 0x01, 0xfe, 0x01, 0xfe, 0x01, 0xfe, 0x01 };
